<svg width="72" height="24" viewBox="0 0 72 24" fill="none" xmlns="http://www.w3.org/2000/svg">
<path d="M44 12C44 7.58172 40.4183 4 36 4C31.5817 4 28 7.58172 28 12C28 16.4183 31.5817 20 36 20C40.4183 20 44 16.4183 44 12ZM46 12C46 17.5228 41.5228 22 36 22C30.4772 22 26 17.5228 26 12C26 6.47715 30.4772 2 36 2C41.5228 2 46 6.47715 46 12Z" fill="#404040"/>
<path d="M43.4141 6L30 19.4141L28.5859 18L42 4.58594L43.4141 6Z" fill="#404040"/>
<path d="M69.4141 7L58 18.4141L51.5859 12L53 10.5859L58 15.5859L68 5.58594L69.4141 7Z" fill="#404040"/>
</svg>
